#Factory_Floor_8x1.obj
#Monday, May 26, 2014
#9:43:19 PM
#-------

#Factory_Floor_8x1
#-------
g Factory_Floor_8x1
v 4.000001 -0.1294095 0.4829634
v -4.000001 0.1294095 -0.4829634
v -4.000001 -0.1294095 0.4829626
v 4.000001 0.1294095 -0.4829626

vn -2.262668E-08 0.965926 0.2588192
vn -2.262668E-08 0.965926 0.2588192
vn -2.262668E-08 0.965926 0.2588192
vn -2.262668E-08 0.965926 0.2588192

vt 0 0
vt 1 1
vt 1 0
vt 0 1

usemtl Factory_Floor_8x1
usemap Factory_Floor_8x1
f 1/1/1 2/2/2 3/3/3
f 2/2/2 1/1/1 4/4/4
