# This file uses centimeters as units for non-parametric coordinates.

mtllib int_prop_moving.mtl
g default
v -2.000000 -0.250000 2.000000
v 2.000000 -0.250000 2.000000
v -2.000000 0.250000 2.000000
v 2.000000 0.250000 2.000000
v -2.000000 0.250000 -2.000000
v 2.000000 0.250000 -2.000000
v -2.000000 -0.250000 -2.000000
v 2.000000 -0.250000 -2.000000
v -1.747267 0.250000 1.747267
v 1.747267 0.250000 1.747267
v 1.747267 0.250000 -1.747267
v -1.747267 0.250000 -1.747267
v -1.644109 0.136493 1.644109
v 1.644109 0.136493 1.644109
v 1.644109 0.136493 -1.644109
v -1.644109 0.136493 -1.644109
vt 0.001877 0.498119
vt 0.001877 0.001992
vt 0.063893 0.001992
vt 0.063893 0.498119
vt 0.114165 0.046134
vt 0.522009 0.046134
vt 0.522009 0.453977
vt 0.114165 0.453977
vt 0.101370 0.033339
vt 0.534804 0.033339
vt 0.534804 0.466772
vt 0.101370 0.466772
vt 0.070023 0.001992
vt 0.566150 0.001992
vt 0.566150 0.498119
vt 0.070023 0.498119
vt 0.573312 0.498119
vt 0.573312 0.001992
vt 0.635328 0.001992
vt 0.635328 0.498119
vt 0.444461 0.501881
vt 0.940588 0.501881
vt 0.940588 0.998008
vt 0.444461 0.998008
vt 0.376662 0.998008
vt 0.376662 0.501881
vt 0.438678 0.501881
vt 0.438678 0.998008
vt 0.308864 0.998008
vt 0.308864 0.501881
vt 0.370880 0.501881
vt 0.370880 0.998008
vn 0.000000 0.000000 1.000000
vn 0.000000 0.000000 1.000000
vn 0.000000 0.000000 1.000000
vn 0.000000 0.000000 1.000000
vn 0.000000 1.000000 0.000000
vn 0.000000 1.000000 0.000000
vn 0.000000 1.000000 0.000000
vn 0.000000 1.000000 0.000000
vn 0.000000 0.000000 -1.000000
vn 0.000000 0.000000 -1.000000
vn 0.000000 0.000000 -1.000000
vn 0.000000 0.000000 -1.000000
vn 0.000000 -1.000000 0.000000
vn 0.000000 -1.000000 0.000000
vn 0.000000 -1.000000 0.000000
vn 0.000000 -1.000000 0.000000
vn 1.000000 0.000000 0.000000
vn 1.000000 0.000000 0.000000
vn 1.000000 0.000000 0.000000
vn 1.000000 0.000000 0.000000
vn -1.000000 0.000000 0.000000
vn -1.000000 0.000000 0.000000
vn -1.000000 0.000000 0.000000
vn -1.000000 0.000000 0.000000
vn 0.000000 1.000000 0.000000
vn 0.000000 1.000000 0.000000
vn 0.000000 1.000000 0.000000
vn 0.000000 1.000000 0.000000
vn 0.000000 1.000000 0.000000
vn 0.000000 1.000000 0.000000
vn 0.000000 1.000000 0.000000
vn 0.000000 1.000000 0.000000
vn 0.000000 1.000000 0.000000
vn 0.000000 1.000000 0.000000
vn 0.000000 1.000000 0.000000
vn 0.000000 1.000000 0.000000
vn 0.000000 1.000000 0.000000
vn 0.000000 1.000000 0.000000
vn 0.000000 1.000000 0.000000
vn 0.000000 1.000000 0.000000
vn 0.000000 0.672563 -0.740040
vn 0.000000 0.672563 -0.740040
vn 0.000000 0.672563 -0.740040
vn 0.000000 0.672563 -0.740040
vn -0.740040 0.672563 0.000000
vn -0.740040 0.672563 0.000000
vn -0.740040 0.672563 0.000000
vn -0.740040 0.672563 0.000000
vn 0.000000 0.672563 0.740040
vn 0.000000 0.672563 0.740040
vn 0.000000 0.672563 0.740040
vn 0.000000 0.672563 0.740040
vn 0.740040 0.672563 0.000000
vn 0.740040 0.672563 0.000000
vn 0.740040 0.672563 0.000000
vn 0.740040 0.672563 0.000000
s off
g pCube1
usemtl initialShadingGroup
f 1/1/1 2/2/2 4/3/3 3/4/4
f 13/5/5 14/6/6 15/7/7 16/8/8
f 5/17/9 6/18/10 8/19/11 7/20/12
f 7/21/13 8/22/14 2/23/15 1/24/16
f 2/25/17 8/26/18 6/27/19 4/28/20
f 7/29/21 1/30/22 3/31/23 5/32/24
f 3/13/25 4/14/26 10/10/27 9/9/28
f 4/14/29 6/15/30 11/11/31 10/10/32
f 6/15/33 5/16/34 12/12/35 11/11/36
f 5/16/37 3/13/38 9/9/39 12/12/40
f 9/9/41 10/10/42 14/6/43 13/5/44
f 10/10/45 11/11/46 15/7/47 14/6/48
f 11/11/49 12/12/50 16/8/51 15/7/52
f 12/12/53 9/9/54 13/5/55 16/8/56
