# 3ds Max Wavefront OBJ Exporter v0.97b - (c)2007 guruware
# File Created: 24.04.2014 15:23:09

mtllib int_prop_traffic_cone.mtl

#
# object Cylinder001
#

v  4.6910 0.3286 0.0000
v  4.4081 0.3286 -1.6044
v  4.4081 0.4517 -1.6044
v  4.6910 0.4517 0.0000
v  3.5935 0.3286 -3.0153
v  3.5935 0.4517 -3.0153
v  2.3455 0.3286 -4.0625
v  2.3455 0.4517 -4.0625
v  0.8146 0.3286 -4.6197
v  0.8146 0.4517 -4.6197
v  -0.8146 0.3286 -4.6197
v  -0.8146 0.4517 -4.6197
v  -2.3455 0.3286 -4.0625
v  -2.3455 0.4517 -4.0625
v  -3.5935 0.3286 -3.0153
v  -3.5935 0.4517 -3.0153
v  -4.4081 0.3286 -1.6044
v  -4.4081 0.4517 -1.6044
v  -4.6910 0.3286 -0.0000
v  -4.6910 0.4517 -0.0000
v  -4.4081 0.3286 1.6044
v  -4.4081 0.4517 1.6044
v  -3.5935 0.3286 3.0153
v  -3.5935 0.4517 3.0153
v  -2.3455 0.3286 4.0625
v  -2.3455 0.4517 4.0625
v  -0.8146 0.3286 4.6197
v  -0.8146 0.4517 4.6197
v  0.8146 0.3286 4.6197
v  0.8146 0.4517 4.6197
v  2.3455 0.3286 4.0625
v  2.3455 0.4517 4.0625
v  3.5935 0.3286 3.0153
v  3.5935 0.4517 3.0153
v  4.4081 0.3286 1.6044
v  4.4081 0.4517 1.6044
v  4.4081 0.5748 -1.6044
v  4.6910 0.5748 0.0000
v  3.5935 0.5748 -3.0153
v  2.3455 0.5748 -4.0625
v  0.8146 0.5748 -4.6197
v  -0.8146 0.5748 -4.6197
v  -2.3455 0.5748 -4.0625
v  -3.5935 0.5748 -3.0153
v  -4.4081 0.5748 -1.6044
v  -4.6910 0.5748 -0.0000
v  -4.4081 0.5748 1.6044
v  -3.5935 0.5748 3.0153
v  -2.3455 0.5748 4.0625
v  -0.8146 0.5748 4.6197
v  0.8146 0.5748 4.6197
v  2.3455 0.5748 4.0625
v  3.5935 0.5748 3.0153
v  4.4081 0.5748 1.6044
v  0.6095 15.3354 -0.0000
v  0.5727 15.3354 -0.2084
v  0.5727 15.3354 0.2084
v  4.2283 0.5748 -1.5390
v  4.4996 0.5748 -0.0000
v  3.4469 0.5748 -2.8923
v  2.2498 0.5748 -3.8968
v  0.7814 0.5748 -4.4313
v  -0.7814 0.5748 -4.4313
v  -2.2498 0.5748 -3.8968
v  -3.4469 0.5748 -2.8923
v  -4.2283 0.5748 -1.5390
v  -4.4996 0.5748 -0.0000
v  -4.2283 0.5748 1.5390
v  -3.4469 0.5748 2.8923
v  -2.2498 0.5748 3.8968
v  -0.7814 0.5748 4.4313
v  0.7814 0.5748 4.4313
v  2.2498 0.5748 3.8968
v  3.4469 0.5748 2.8923
v  4.2283 0.5748 1.5390
v  0.4669 15.3354 -0.3917
v  0.3047 15.3354 -0.5278
v  0.1058 15.3354 -0.6002
v  -0.1058 15.3354 -0.6002
v  -0.3047 15.3354 -0.5278
v  -0.4669 15.3354 -0.3917
v  -0.5727 15.3354 -0.2084
v  -0.6095 15.3354 -0.0000
v  -0.5727 15.3354 0.2084
v  -0.4669 15.3354 0.3917
v  -0.3047 15.3354 0.5278
v  -0.1058 15.3354 0.6002
v  0.1058 15.3354 0.6002
v  0.3047 15.3354 0.5278
v  0.4669 15.3354 0.3917
v  -6.4651 -0.3537 6.3730
v  -6.4651 -0.3537 -6.3730
v  6.4651 -0.3537 -6.3730
v  6.4651 -0.3537 6.3730
v  -6.4651 0.2791 6.3730
v  6.4651 0.2791 6.3730
v  6.4651 0.2791 -6.3730
v  -6.4651 0.2791 -6.3730
# 98 vertices

vn 1.0000 0.0000 0.0000
vn 0.9397 0.0000 -0.3420
vn 0.7660 0.0000 -0.6428
vn 0.5000 0.0000 -0.8660
vn 0.1736 0.0000 -0.9848
vn -0.1736 0.0000 -0.9848
vn -0.5000 0.0000 -0.8660
vn -0.7660 0.0000 -0.6428
vn -0.9397 0.0000 -0.3420
vn -1.0000 0.0000 0.0000
vn -1.0000 0.0000 -0.0000
vn -0.9397 0.0000 0.3420
vn -0.7660 0.0000 0.6428
vn -0.5000 0.0000 0.8660
vn -0.1736 0.0000 0.9848
vn 0.1736 0.0000 0.9848
vn 0.5000 0.0000 0.8660
vn 0.7660 0.0000 0.6428
vn 0.9397 0.0000 0.3420
vn 0.0000 1.0000 -0.0000
vn -0.0000 1.0000 -0.0000
vn -0.0000 1.0000 0.0000
vn 0.0000 1.0000 0.0000
vn 0.9532 0.2512 -0.1681
vn 0.8383 0.2512 -0.4840
vn 0.6222 0.2512 -0.7415
vn 0.3311 0.2512 -0.9096
vn -0.0000 0.2512 -0.9679
vn -0.3311 0.2512 -0.9096
vn -0.6222 0.2512 -0.7415
vn -0.8383 0.2512 -0.4840
vn -0.9532 0.2512 -0.1681
vn -0.9532 0.2512 0.1681
vn -0.8383 0.2512 0.4840
vn -0.6222 0.2512 0.7415
vn -0.3311 0.2512 0.9096
vn -0.0000 0.2512 0.9679
vn 0.3311 0.2512 0.9096
vn 0.6222 0.2512 0.7415
vn 0.8383 0.2512 0.4840
vn 0.9532 0.2512 0.1681
vn 0.0000 -1.0000 -0.0000
vn 0.0000 0.0000 1.0000
vn 1.0000 0.0000 -0.0000
vn 0.0000 0.0000 -1.0000
# 45 vertex normals

vt 19.5216 10.4863 1.0000
vt 19.5771 10.4863 1.0000
vt 19.5771 10.6863 1.0000
vt 19.5216 10.6863 1.0000
vt 19.6327 10.4863 1.0000
vt 19.6327 10.6863 1.0000
vt 19.6882 10.4863 1.0000
vt 19.6882 10.6863 1.0000
vt 19.7438 10.4863 1.0000
vt 19.7438 10.6863 1.0000
vt 19.7994 10.4863 1.0000
vt 19.7994 10.6863 1.0000
vt 18.7994 10.4863 1.0000
vt 18.8549 10.4863 1.0000
vt 18.8549 10.6863 1.0000
vt 18.7994 10.6863 1.0000
vt 18.9105 10.4863 1.0000
vt 18.9105 10.6863 1.0000
vt 18.9660 10.4863 1.0000
vt 18.9660 10.6863 1.0000
vt 19.0216 10.4863 1.0000
vt 19.0216 10.6863 1.0000
vt 19.0771 10.4863 1.0000
vt 19.0771 10.6863 1.0000
vt 19.1327 10.4863 1.0000
vt 19.1327 10.6863 1.0000
vt 19.1882 10.4863 1.0000
vt 19.1882 10.6863 1.0000
vt 19.2438 10.4863 1.0000
vt 19.2438 10.6863 1.0000
vt 19.2994 10.4863 1.0000
vt 19.2994 10.6863 1.0000
vt 19.3549 10.4863 1.0000
vt 19.3549 10.6863 1.0000
vt 19.4105 10.4863 1.0000
vt 19.4105 10.6863 1.0000
vt 19.4660 10.4863 1.0000
vt 19.4660 10.6863 1.0000
vt 19.5771 10.8863 1.0000
vt 19.5216 10.8863 1.0000
vt 19.6327 10.8863 1.0000
vt 19.6882 10.8863 1.0000
vt 19.7438 10.8863 1.0000
vt 19.7994 10.8863 1.0000
vt 18.8549 10.8863 1.0000
vt 18.7994 10.8863 1.0000
vt 18.9105 10.8863 1.0000
vt 18.9660 10.8863 1.0000
vt 19.0216 10.8863 1.0000
vt 19.0771 10.8863 1.0000
vt 19.1327 10.8863 1.0000
vt 19.1882 10.8863 1.0000
vt 19.2438 10.8863 1.0000
vt 19.2934 10.8863 1.0000
vt 19.3489 10.8863 1.0000
vt 19.4105 10.8863 1.0000
vt 19.4660 10.8863 1.0000
vt 19.2716 10.8863 0.2500
vt 19.1006 10.8562 0.2500
vt 19.4426 10.8562 0.2500
vt 18.9502 10.7693 0.2500
vt 18.8386 10.6363 0.2500
vt 18.7792 10.4731 0.2500
vt 18.7792 10.2995 0.2500
vt 18.8386 10.1363 0.2500
vt 18.9502 10.0033 0.2500
vt 19.1006 9.9165 0.2500
vt 19.2716 9.8863 0.2500
vt 19.4426 9.9165 0.2500
vt 19.5930 10.0033 0.2500
vt 19.7046 10.1363 0.2500
vt 19.7640 10.2995 0.2500
vt 19.7580 10.4731 0.2500
vt 19.6986 10.6363 0.2500
vt 19.5930 10.7693 0.2500
vt 19.7640 10.4731 0.2500
vt 19.7046 10.6363 0.2500
vt 16.3427 19.4422 0.0000
vt 24.5150 11.2687 0.0000
vt 32.8066 19.5592 0.0000
vt 24.6344 27.7326 0.0000
vt 15.9371 19.8479 0.0000
vt 24.2287 28.1383 0.0000
vt 16.0564 36.3117 0.0000
vt 7.7648 28.0213 0.0000
vt 32.8066 35.9057 0.0000
vt 32.4009 36.3114 0.0000
vt 24.9207 10.8630 0.0000
vt 33.2123 19.1534 0.0000
vt 8.1690 11.2700 0.0000
vt 7.7633 11.6757 0.0000
# 91 texture coords

g Cylinder001
usemtl wire_086086086
s 8
f 1/1/1 2/2/2 3/3/2 4/4/1 
f 2/2/2 5/5/3 6/6/3 3/3/2 
f 5/5/3 7/7/4 8/8/4 6/6/3 
f 7/7/4 9/9/5 10/10/5 8/8/4 
f 9/9/5 11/11/6 12/12/6 10/10/5 
f 11/13/6 13/14/7 14/15/7 12/16/6 
f 13/14/7 15/17/8 16/18/8 14/15/7 
f 15/17/8 17/19/9 18/20/9 16/18/8 
f 17/19/9 19/21/10 20/22/11 18/20/9 
f 19/21/10 21/23/12 22/24/12 20/22/11 
f 21/23/12 23/25/13 24/26/13 22/24/12 
f 23/25/13 25/27/14 26/28/14 24/26/13 
f 25/27/14 27/29/15 28/30/15 26/28/14 
f 27/29/15 29/31/16 30/32/16 28/30/15 
f 29/31/16 31/33/17 32/34/17 30/32/16 
f 31/33/17 33/35/18 34/36/18 32/34/17 
f 33/35/18 35/37/19 36/38/19 34/36/18 
f 35/37/19 1/1/1 4/4/1 36/38/19 
f 4/4/1 3/3/2 37/39/2 38/40/1 
f 3/3/2 6/6/3 39/41/3 37/39/2 
f 6/6/3 8/8/4 40/42/4 39/41/3 
f 8/8/4 10/10/5 41/43/5 40/42/4 
f 10/10/5 12/12/6 42/44/6 41/43/5 
f 12/16/6 14/15/7 43/45/7 42/46/6 
f 14/15/7 16/18/8 44/47/8 43/45/7 
f 16/18/8 18/20/9 45/48/9 44/47/8 
f 18/20/9 20/22/11 46/49/11 45/48/9 
f 20/22/11 22/24/12 47/50/12 46/49/11 
f 22/24/12 24/26/13 48/51/13 47/50/12 
f 24/26/13 26/28/14 49/52/14 48/51/13 
f 26/28/14 28/30/15 50/53/15 49/52/14 
f 28/30/15 30/32/16 51/54/16 50/53/15 
f 30/32/16 32/34/17 52/55/17 51/54/16 
f 32/34/17 34/36/18 53/56/18 52/55/17 
f 34/36/18 36/38/19 54/57/19 53/56/18 
f 36/38/19 4/4/1 38/40/1 54/57/19 
s 1
f 55/58/20 56/59/20 57/60/20 
s off
f 38/40/20 37/39/20 58/59/20 59/58/20 
f 37/39/20 39/41/20 60/61/20 58/59/20 
f 39/41/20 40/42/20 61/62/20 60/61/20 
f 40/42/20 41/43/20 62/63/20 61/62/20 
f 41/43/21 42/44/21 63/64/21 62/63/21 
f 42/46/21 43/45/21 64/65/21 63/64/21 
f 43/45/21 44/47/21 65/66/21 64/65/21 
f 44/47/21 45/48/21 66/67/21 65/66/21 
f 45/48/21 46/49/21 67/68/21 66/67/21 
f 46/49/22 47/50/22 68/69/22 67/68/22 
f 47/50/22 48/51/22 69/70/22 68/69/22 
f 48/51/22 49/52/22 70/71/22 69/70/22 
f 49/52/22 50/53/22 71/72/22 70/71/22 
f 50/53/22 51/54/22 72/73/22 71/72/22 
f 51/54/23 52/55/23 73/74/23 72/73/23 
f 52/55/23 53/56/23 74/75/23 73/74/23 
f 53/56/23 54/57/23 75/60/23 74/75/23 
f 54/57/23 38/40/23 59/58/23 75/60/23 
f 59/58/24 58/59/24 56/59/24 55/58/24 
f 58/59/25 60/61/25 76/61/25 56/59/25 
f 60/61/26 61/62/26 77/62/26 76/61/26 
f 61/62/27 62/63/27 78/63/27 77/62/27 
f 62/63/28 63/64/28 79/64/28 78/63/28 
f 63/64/29 64/65/29 80/65/29 79/64/29 
f 64/65/30 65/66/30 81/66/30 80/65/30 
f 65/66/31 66/67/31 82/67/31 81/66/31 
f 66/67/32 67/68/32 83/68/32 82/67/32 
f 67/68/33 68/69/33 84/69/33 83/68/33 
f 68/69/34 69/70/34 85/70/34 84/69/34 
f 69/70/35 70/71/35 86/71/35 85/70/35 
f 70/71/36 71/72/36 87/72/36 86/71/36 
f 71/72/37 72/73/37 88/76/37 87/72/37 
f 72/73/38 73/74/38 89/77/38 88/76/38 
f 73/74/39 74/75/39 90/75/39 89/77/39 
f 74/75/40 75/60/40 57/60/40 90/75/40 
f 75/60/41 59/58/41 55/58/41 57/60/41 
s 2
f 91/78/42 92/79/42 93/80/42 94/81/42 
s 4
f 95/82/20 96/83/20 97/84/20 98/85/20 
s 8
f 91/78/43 94/81/43 96/83/43 95/82/43 
s 16
f 94/81/44 93/86/44 97/87/44 96/83/44 
s 32
f 93/80/45 92/79/45 98/88/45 97/89/45 
s 64
f 92/90/11 91/78/11 95/82/11 98/91/11 
s 1
f 56/59/20 76/61/20 77/62/20 
f 77/62/20 78/63/20 79/64/20 
f 79/64/20 80/65/20 81/66/20 
f 77/62/20 79/64/20 81/66/20 
f 81/66/20 82/67/20 83/68/20 
f 83/68/20 84/69/20 85/70/20 
f 81/66/20 83/68/20 85/70/20 
f 85/70/20 86/71/20 87/72/20 
f 87/72/20 88/76/20 89/77/20 
f 85/70/20 87/72/20 89/77/20 
f 81/66/20 85/70/20 89/77/20 
f 77/62/20 81/66/20 89/77/20 
f 89/77/20 90/75/20 57/60/20 
f 77/62/20 89/77/20 57/60/20 
f 56/59/20 77/62/20 57/60/20 
# 78 polygons - 16 triangles

