# This file uses centimeters as units for non-parametric coordinates.

mtllib int_prop_piston.mtl
g default
v -12.027176 -10.309004 1.191093
v 12.027176 -10.309004 1.191093
v -12.027176 10.309004 1.191093
v 12.027176 10.309004 1.191093
v -12.027176 10.309004 -0.527073
v 12.027176 10.309004 -0.527073
v -12.027176 -10.309004 -0.527073
v 12.027176 -10.309004 -0.527073
v -7.911527 6.781308 -0.527073
v 7.911527 6.781308 -0.527073
v 7.911527 -6.781308 -0.527073
v -7.911527 -6.781308 -0.527073
v -7.238667 6.204566 -1.989329
v 7.238667 6.204566 -1.989329
v 7.238667 -6.204566 -1.989329
v -7.238667 -6.204566 -1.989329
v -1.400530 1.050422 -2.104098
v -3.214709 2.755463 -1.766196
v 1.400530 1.050422 -2.104098
v 3.214709 2.755463 -1.766196
v 1.400530 -1.050422 -2.104098
v 3.214709 -2.755463 -1.766196
v -1.400530 -1.050422 -2.104098
v -3.214709 -2.755463 -1.766196
v 1.400530 1.050422 -21.736506
v 1.400530 -1.050422 -21.736506
v -1.400530 -1.050422 -21.736506
v -1.400530 1.050422 -21.736506
vt 0.375000 0.000000
vt 0.625000 0.000000
vt 0.625000 0.250000
vt 0.375000 0.250000
vt 0.625000 0.500000
vt 0.375000 0.500000
vt 0.375000 0.750000
vt 0.625000 0.750000
vt 0.625000 1.000000
vt 0.375000 1.000000
vt 0.875000 0.000000
vt 0.875000 0.250000
vt 0.125000 0.000000
vt 0.125000 0.250000
vt 0.625000 0.500000
vt 0.375000 0.500000
vt 0.625000 0.750000
vt 0.375000 0.750000
vt 0.625000 0.500000
vt 0.375000 0.500000
vt 0.625000 0.750000
vt 0.375000 0.750000
vt 0.625000 0.500000
vt 0.375000 0.500000
vt 0.625000 0.750000
vt 0.375000 0.750000
vt 0.571434 0.562494
vt 0.571434 0.687506
vt 0.428566 0.687506
vt 0.428566 0.562494
vt 0.428566 0.562494
vt 0.428566 0.687506
vt 0.571434 0.562494
vt 0.571434 0.687506
vn 0.000000 0.000000 1.000000
vn 0.000000 0.000000 1.000000
vn 0.000000 0.000000 1.000000
vn 0.000000 0.000000 1.000000
vn 0.000000 1.000000 0.000000
vn 0.000000 1.000000 0.000000
vn 0.000000 1.000000 0.000000
vn 0.000000 1.000000 0.000000
vn 0.000000 -1.000000 0.000000
vn 0.000000 -1.000000 0.000000
vn 0.000000 -1.000000 0.000000
vn 0.000000 -1.000000 0.000000
vn 1.000000 0.000000 0.000000
vn 1.000000 0.000000 0.000000
vn 1.000000 0.000000 0.000000
vn 1.000000 0.000000 0.000000
vn -1.000000 0.000000 0.000000
vn -1.000000 0.000000 0.000000
vn -1.000000 0.000000 0.000000
vn -1.000000 0.000000 0.000000
vn 0.000000 0.000000 -1.000000
vn 0.000000 0.000000 -1.000000
vn 0.000000 0.000000 -1.000000
vn 0.000000 0.000000 -1.000000
vn 0.000000 0.000000 -1.000000
vn 0.000000 0.000000 -1.000000
vn 0.000000 0.000000 -1.000000
vn 0.000000 0.000000 -1.000000
vn 0.000000 0.000000 -1.000000
vn 0.000000 0.000000 -1.000000
vn 0.000000 0.000000 -1.000000
vn 0.000000 0.000000 -1.000000
vn 0.000000 0.000000 -1.000000
vn 0.000000 0.000000 -1.000000
vn 0.000000 0.000000 -1.000000
vn 0.000000 0.000000 -1.000000
vn 0.000000 0.930256 -0.366910
vn 0.000000 0.930256 -0.366910
vn 0.000000 0.850495 -0.525983
vn 0.000000 0.850495 -0.525983
vn 0.908437 0.000000 -0.418021
vn 0.908437 0.000000 -0.418021
vn 0.792826 0.000000 -0.609449
vn 0.792826 0.000000 -0.609449
vn 0.000000 -0.930256 -0.366910
vn 0.000000 -0.930256 -0.366910
vn 0.000000 -0.850495 -0.525983
vn 0.000000 -0.850495 -0.525983
vn -0.908437 0.000000 -0.418021
vn -0.908437 0.000000 -0.418021
vn -0.792826 0.000000 -0.609449
vn -0.792826 0.000000 -0.609449
vn 0.000000 0.850495 -0.525983
vn 0.000000 0.850495 -0.525983
vn 0.172365 0.210676 -0.962240
vn -0.172365 0.210676 -0.962240
vn 0.792826 0.000000 -0.609449
vn 0.792826 0.000000 -0.609449
vn 0.172365 -0.210676 -0.962240
vn 0.172365 0.210676 -0.962240
vn 0.000000 -0.850495 -0.525983
vn 0.000000 -0.850495 -0.525983
vn -0.172365 -0.210676 -0.962240
vn 0.172365 -0.210676 -0.962240
vn -0.792826 0.000000 -0.609449
vn -0.792826 0.000000 -0.609449
vn -0.172365 0.210676 -0.962240
vn -0.172365 -0.210676 -0.962240
vn 0.000000 0.000000 -1.000000
vn 0.000000 0.000000 -1.000000
vn 0.000000 0.000000 -1.000000
vn 0.000000 0.000000 -1.000000
vn -0.172365 0.210676 -0.962240
vn -0.085051 0.105848 -0.990738
vn -0.085051 -0.105848 -0.990738
vn -0.172365 -0.210676 -0.962240
vn -0.085051 0.105848 -0.990738
vn -0.172365 0.210676 -0.962240
vn 0.172365 0.210676 -0.962240
vn 0.085051 0.105848 -0.990738
vn 0.085051 0.105848 -0.990738
vn 0.172365 0.210676 -0.962240
vn 0.172365 -0.210676 -0.962240
vn 0.085051 -0.105848 -0.990738
vn 0.085051 -0.105848 -0.990738
vn 0.172365 -0.210676 -0.962240
vn -0.172365 -0.210676 -0.962240
vn -0.085051 -0.105848 -0.990738
vn 1.000000 0.000000 0.000000
vn 1.000000 0.000000 0.000000
vn 1.000000 0.000000 0.000000
vn 1.000000 0.000000 0.000000
vn 0.000000 -1.000000 0.000000
vn 0.000000 -1.000000 0.000000
vn 0.000000 -1.000000 0.000000
vn 0.000000 -1.000000 0.000000
vn -1.000000 0.000000 0.000000
vn -1.000000 0.000000 0.000000
vn -1.000000 0.000000 0.000000
vn -1.000000 0.000000 0.000000
vn 0.000000 1.000000 0.000000
vn 0.000000 1.000000 0.000000
vn 0.000000 1.000000 0.000000
vn 0.000000 1.000000 0.000000
s off
g int_prop_piston:pCube1
usemtl int_prop_piston:initialShadingGroup
f 1/1/1 2/2/2 4/3/3 3/4/4
f 3/4/5 4/3/6 6/5/7 5/6/8
f 7/7/9 8/8/10 2/9/11 1/10/12
f 2/2/13 8/11/14 6/12/15 4/3/16
f 7/13/17 1/1/18 3/4/19 5/14/20
f 5/6/21 6/5/22 10/15/23 9/16/24
f 6/5/25 8/8/26 11/17/27 10/15/28
f 8/8/29 7/7/30 12/18/31 11/17/32
f 7/7/33 5/6/34 9/16/35 12/18/36
f 9/16/37 10/15/38 14/19/39 13/20/40
f 10/15/41 11/17/42 15/21/43 14/19/44
f 11/17/45 12/18/46 16/22/47 15/21/48
f 12/18/49 9/16/50 13/20/51 16/22/52
f 13/20/53 14/19/54 20/23/55 18/24/56
f 14/19/57 15/21/58 22/25/59 20/23/60
f 15/21/61 16/22/62 24/26/63 22/25/64
f 16/22/65 13/20/66 18/24/67 24/26/68
f 25/27/69 26/28/70 27/29/71 28/30/72
f 18/24/73 17/31/74 23/32/75 24/26/76
f 17/31/77 18/24/78 20/23/79 19/33/80
f 19/33/81 20/23/82 22/25/83 21/34/84
f 21/34/85 22/25/86 24/26/87 23/32/88
f 19/33/89 21/34/90 26/28/91 25/27/92
f 21/34/93 23/32/94 27/29/95 26/28/96
f 23/32/97 17/31/98 28/30/99 27/29/100
f 17/31/101 19/33/102 25/27/103 28/30/104
g default
v -2.600000 -2.600000 -4.569260
v 2.600000 -2.600000 -4.569260
v -2.600000 2.600000 -4.569260
v 2.600000 2.600000 -4.569260
v -2.600000 2.600000 -22.688870
v 2.600000 2.600000 -22.688870
v -2.600000 -2.600000 -22.688870
v 2.600000 -2.600000 -22.688870
v -1.400615 -1.078604 -4.569260
v 1.400615 -1.078604 -4.569260
v 1.400615 1.078604 -4.569260
v -1.400615 1.078604 -4.569260
v -1.400615 -1.078604 -17.544241
v 1.400615 -1.078604 -17.544241
v 1.400615 1.078604 -17.544241
v -1.400615 1.078604 -17.544241
vt 0.375000 0.000000
vt 0.625000 0.000000
vt 0.625000 0.250000
vt 0.375000 0.250000
vt 0.375000 0.250000
vt 0.625000 0.250000
vt 0.625000 0.500000
vt 0.375000 0.500000
vt 0.625000 0.750000
vt 0.375000 0.750000
vt 0.625000 1.000000
vt 0.375000 1.000000
vt 0.625000 0.000000
vt 0.875000 0.000000
vt 0.875000 0.250000
vt 0.125000 0.000000
vt 0.375000 0.000000
vt 0.125000 0.250000
vt 0.625000 0.000000
vt 0.375000 0.000000
vt 0.625000 0.250000
vt 0.375000 0.250000
vn 0.000000 0.000000 1.000000
vn 0.000000 0.000000 1.000000
vn 0.000000 0.000000 1.000000
vn 0.000000 0.000000 1.000000
vn 0.000000 1.000000 0.000000
vn 0.000000 1.000000 0.000000
vn 0.000000 1.000000 0.000000
vn 0.000000 1.000000 0.000000
vn 0.000000 0.000000 -1.000000
vn 0.000000 0.000000 -1.000000
vn 0.000000 0.000000 -1.000000
vn 0.000000 0.000000 -1.000000
vn 0.000000 -1.000000 0.000000
vn 0.000000 -1.000000 0.000000
vn 0.000000 -1.000000 0.000000
vn 0.000000 -1.000000 0.000000
vn 1.000000 0.000000 0.000000
vn 1.000000 0.000000 0.000000
vn 1.000000 0.000000 0.000000
vn 1.000000 0.000000 0.000000
vn -1.000000 0.000000 0.000000
vn -1.000000 0.000000 0.000000
vn -1.000000 0.000000 0.000000
vn -1.000000 0.000000 0.000000
vn 0.000000 0.000000 1.000000
vn 0.000000 0.000000 1.000000
vn 0.000000 0.000000 1.000000
vn 0.000000 0.000000 1.000000
vn 0.000000 0.000000 1.000000
vn 0.000000 0.000000 1.000000
vn 0.000000 0.000000 1.000000
vn 0.000000 0.000000 1.000000
vn 0.000000 0.000000 1.000000
vn 0.000000 0.000000 1.000000
vn 0.000000 0.000000 1.000000
vn 0.000000 0.000000 1.000000
vn 0.000000 0.000000 1.000000
vn 0.000000 0.000000 1.000000
vn 0.000000 0.000000 1.000000
vn 0.000000 0.000000 1.000000
vn 0.000000 1.000000 0.000000
vn 0.000000 1.000000 0.000000
vn 0.000000 1.000000 0.000000
vn 0.000000 1.000000 0.000000
vn -1.000000 0.000000 0.000000
vn -1.000000 0.000000 0.000000
vn -1.000000 0.000000 0.000000
vn -1.000000 0.000000 0.000000
vn 0.000000 -1.000000 0.000000
vn 0.000000 -1.000000 0.000000
vn 0.000000 -1.000000 0.000000
vn 0.000000 -1.000000 0.000000
vn 1.000000 0.000000 0.000000
vn 1.000000 0.000000 0.000000
vn 1.000000 0.000000 0.000000
vn 1.000000 0.000000 0.000000
s off
g int_prop_piston:pCube2
usemtl int_prop_piston:initialShadingGroup
f 41/35/105 42/36/106 43/37/107 44/38/108
f 31/39/109 32/40/110 34/41/111 33/42/112
f 33/42/113 34/41/114 36/43/115 35/44/116
f 35/44/117 36/43/118 30/45/119 29/46/120
f 30/47/121 36/48/122 34/49/123 32/40/124
f 35/50/125 29/51/126 31/39/127 33/52/128
f 29/51/129 30/47/130 38/53/131 37/54/132
f 30/47/133 32/40/134 39/55/135 38/53/136
f 32/40/137 31/39/138 40/56/139 39/55/140
f 31/39/141 29/51/142 37/54/143 40/56/144
f 37/54/145 38/53/146 42/36/147 41/35/148
f 38/53/149 39/55/150 43/37/151 42/36/152
f 39/55/153 40/56/154 44/38/155 43/37/156
f 40/56/157 37/54/158 41/35/159 44/38/160
