# This file uses centimeters as units for non-parametric coordinates.

mtllib sd_prop_headlight.mtl
g default
v -1.010966 -1.325319 0.642767
v -0.480228 1.307271 1.031145
v -0.465046 1.644135 -0.145967
v -0.998748 -0.849106 -1.341559
v -0.556961 0.189270 -0.617095
v -0.556961 -0.083792 0.439033
v 0.998770 -0.849106 -1.341559
v 0.556931 0.189270 -0.617095
v 0.556931 -0.083792 0.439033
v 0.479594 1.307272 1.031146
v 0.465021 1.644135 -0.145967
v 0.663947 1.525219 0.338165
v -1.426152 -1.101913 -0.370623
v -0.720841 0.214341 -0.037852
v 0.720821 0.214341 -0.037852
v -0.331990 -0.519547 3.913625
v 0.343228 -0.519557 3.913625
v 0.321898 0.427812 3.913624
v -0.333328 0.427805 3.913624
v -0.374998 0.435824 3.889661
v 0.361921 0.435828 3.889661
v 0.386432 -0.530641 3.889661
v -1.458867 -1.062878 -0.358326
v 1.021659 -0.803872 -1.353491
v -1.109415 -1.250444 0.629343
v 1.110469 -1.250452 0.629341
v 0.488554 1.588898 -0.184558
v 1.011596 -1.325320 0.642766
v -0.697600 1.463138 0.326792
v 1.426152 -1.101913 -0.370623
v 1.458867 -1.062878 -0.358326
v -0.663948 1.525219 0.338165
v 0.366750 0.500660 1.304515
v -0.379170 0.500655 1.304514
v 0.416589 -0.579613 1.039475
v 0.385396 -0.487901 3.922012
v -0.373543 -0.487880 3.922012
v -0.547471 1.239508 1.022833
v -0.374951 0.404915 3.922011
v 0.362670 0.404930 3.922012
v 0.440442 -0.487910 3.889661
v 0.546400 1.239514 1.022835
v 0.697600 1.463138 0.326792
v -0.609411 1.433814 0.679319
v -0.661587 0.122219 0.267079
v 1.308897 -1.238271 0.160580
v -1.308897 -1.238271 0.160580
v 0.661568 0.122219 0.267079
v 0.609411 1.433815 0.679319
v 0.609394 1.593405 0.062382
v -0.609394 1.593405 0.062382
v -1.308921 -0.965588 -0.894518
v -0.661587 0.282434 -0.352590
v 0.661568 0.282434 -0.352590
v 1.308921 -0.965588 -0.894518
v -0.373479 -0.531734 1.095774
v -0.374999 0.436635 1.341400
v 0.386446 -0.531739 1.095772
v 0.361912 0.436639 1.341401
v -0.404277 -0.579606 1.039477
v 0.414490 0.404941 3.889661
v -0.373479 -0.530635 3.889661
v -1.338850 -1.203606 0.190790
v -0.461461 -0.538078 1.049615
v -0.426914 -0.490296 1.106317
v -0.426917 -0.487886 3.889661
v 0.440496 -0.490317 1.106311
v 0.474400 -0.538105 1.049608
v 1.338850 -1.203606 0.190790
v 1.338946 -0.923023 -0.896166
v -1.021635 -0.803872 -1.353491
v -1.338946 -0.923023 -0.896166
v -0.640326 1.364863 0.693323
v -0.433746 0.470605 1.296804
v -0.428508 0.406682 1.333661
v -0.428505 0.404924 3.889661
v 0.414454 0.406698 1.333665
v 0.420376 0.470625 1.296809
v 0.640326 1.364863 0.693323
v 0.640256 1.535566 0.034348
v -0.488579 1.588898 -0.184557
v -0.640256 1.535566 0.034348
vt 0.144398 0.025336
vt 0.251927 0.025336
vt 0.248363 0.147972
vt 0.144180 0.147972
vt 0.138602 0.376347
vt 0.031073 0.376347
vt 0.033554 0.350137
vt 0.137736 0.350137
vt 0.643395 0.023853
vt 0.520759 0.023853
vt 0.669602 0.019610
vt 0.792238 0.019610
vt 0.033554 0.344799
vt 0.520758 0.029191
vt 0.137736 0.344799
vt 0.669601 0.024948
vt 0.138602 0.371009
vt 0.792240 0.024948
vt 0.643396 0.029191
vt 0.031073 0.024835
vt 0.033554 0.029745
vt 0.138602 0.024835
vt 0.137736 0.029745
vt 0.674698 0.024948
vt 0.031073 0.371009
vt 0.636641 0.373632
vt 0.636343 0.029191
vt 0.785487 0.369390
vt 0.525639 0.345498
vt 0.525857 0.029191
vt 0.674481 0.341255
vt 0.520696 0.344246
vt 0.669540 0.340003
vt 0.643478 0.375365
vt 0.636342 0.023853
vt 0.251722 0.032387
vt 0.144386 0.032390
vt 0.785189 0.024948
vt 0.785188 0.019610
vt 0.792322 0.371122
vt 0.525858 0.023853
vt 0.248511 0.142876
vt 0.144189 0.142873
vt 0.674699 0.019610
vt 0.209719 0.313751
vt 0.445360 0.313750
vt 0.376038 0.400630
vt 0.280402 0.400631
vt 0.456879 0.322473
vt 0.382773 0.405466
vt 0.372526 0.406207
vt 0.283990 0.406208
vt 0.198249 0.322474
vt 0.273739 0.405469
vt 0.391162 0.612570
vt 0.376479 0.522989
vt 0.378823 0.411033
vt 0.277764 0.411036
vt 0.263719 0.612569
vt 0.276968 0.522987
vt 0.383378 0.620464
vt 0.370231 0.526488
vt 0.283327 0.526488
vt 0.271553 0.620463
vt 0.369668 0.519029
vt 0.375789 0.515541
vt 0.283813 0.519029
vt 0.277579 0.515539
vt 0.957599 0.832673
vt 0.864078 0.451048
vt 0.885530 0.469126
vt 0.971544 0.808488
vt 0.947208 0.083651
vt 0.968661 0.065571
vt 0.875135 0.447214
vt 0.861191 0.423028
vt 0.277082 0.620849
vt 0.372247 0.620849
vt 0.385118 0.657614
vt 0.264273 0.657614
vt 0.378871 0.621718
vt 0.388183 0.656150
vt 0.390525 0.693263
vt 0.258866 0.693263
vt 0.270415 0.621718
vt 0.261208 0.656150
vt 0.385116 0.722081
vt 0.264275 0.722081
vt 0.370802 0.743853
vt 0.278587 0.743853
vt 0.372810 0.747890
vt 0.388177 0.725011
vt 0.276254 0.748293
vt 0.261215 0.725011
vt 0.416445 0.727938
vt 0.413753 0.722989
vt 0.442571 0.710201
vt 0.447411 0.714204
vt 0.390776 0.733724
vt 0.392074 0.739313
vt 0.556584 0.920759
vt 0.510557 0.941788
vt 0.465362 0.962244
vt 0.556430 0.924862
vt 0.511892 0.945188
vt 0.477326 0.704426
vt 0.589666 0.899414
vt 0.467863 0.965108
vt 0.425000 0.980281
vt 0.594798 0.903860
vt 0.430285 0.982094
vt 0.207873 0.710463
vt 0.236665 0.723312
vt 0.233962 0.728255
vt 0.203025 0.714456
vt 0.259619 0.734093
vt 0.258310 0.739680
vt 0.139406 0.941908
vt 0.093423 0.920784
vt 0.184559 0.962458
vt 0.138064 0.945306
vt 0.093568 0.924887
vt 0.060385 0.899369
vt 0.173131 0.704616
vt 0.182051 0.965317
vt 0.055244 0.903805
vt 0.219594 0.982381
vt 0.422759 0.984709
vt 0.227207 0.984709
vt 0.224215 0.980053
vt 0.868002 0.897412
vt 0.778022 0.897679
vt 0.782115 0.878664
vt 0.863781 0.878427
vt 0.788182 0.862569
vt 0.857641 0.862372
vt 0.744854 0.940965
vt 0.786821 0.928931
vt 0.859467 0.928706
vt 0.901814 0.940473
vt 0.751138 0.799306
vt 0.727560 0.829827
vt 0.716380 0.867226
vt 0.894460 0.798936
vt 0.929716 0.866618
vt 0.918284 0.829311
vt 0.864982 0.916642
vt 0.923706 0.905530
vt 0.781181 0.916897
vt 0.722681 0.906133
vn 0.040260 0.006738 0.999167
vn 0.008785 0.721564 0.692292
vn -0.008547 0.722029 0.691810
vn -0.041451 0.005740 0.999124
vn -0.030836 0.638850 0.768713
vn 0.031094 0.640308 0.767488
vn 0.054797 0.951840 0.301659
vn -0.054756 0.951853 0.301627
vn 0.057674 0.966597 0.249728
vn -0.057675 0.966597 0.249728
vn -0.040280 0.999136 0.010223
vn 0.040278 0.999136 0.010226
vn 0.178994 0.465576 -0.866718
vn -0.178999 0.465575 -0.866718
vn 0.650367 -0.735537 -0.189757
vn -0.650362 -0.735541 -0.189758
vn -0.575771 -0.654292 -0.490295
vn 0.575742 -0.654218 -0.490428
vn -0.178506 -0.274069 -0.944998
vn 0.178538 -0.274014 -0.945008
vn 0.960017 0.270809 0.070916
vn 0.927314 0.195951 0.318891
vn 0.844539 0.131947 0.518984
vn -0.845164 0.131351 0.518116
vn -0.927358 0.195855 0.318823
vn -0.960018 0.270809 0.070916
vn -0.197918 -0.662368 0.722563
vn -0.175004 -0.665116 0.725944
vn 0.175010 -0.665113 0.725945
vn 0.197912 -0.662361 0.722571
vn -0.249748 -0.583179 -0.773000
vn -0.793098 -0.425990 -0.435349
vn -0.864826 -0.485876 -0.126492
vn 0.249187 -0.579534 -0.775916
vn 0.864832 -0.485866 -0.126489
vn 0.793071 -0.425840 -0.435543
vn 0.059981 0.974658 0.215508
vn -0.059980 0.974657 0.215511
vn -0.886362 0.364434 -0.285569
vn 0.568702 -0.813535 0.121404
vn 0.797147 -0.569448 0.200716
vn -0.568701 -0.813536 0.121400
vn -0.797141 -0.569458 0.200708
vn 0.886361 0.364438 -0.285570
vn 0.014767 -0.470067 0.882507
vn -0.014686 -0.469854 0.882622
vn 0.027318 0.329075 0.943908
vn -0.027593 0.329553 0.943734
vn -0.670436 -0.012001 0.741870
vn 0.670002 -0.006608 0.742330
vn 0.046468 -0.998663 0.022629
vn -0.046492 -0.998660 0.022717
vn 0.051954 -0.998645 0.002868
vn -0.052019 -0.998642 0.002860
vn -0.038911 0.999240 0.002346
vn 0.038924 0.999240 0.002334
vn 0.041734 0.998779 0.026444
vn -0.041674 0.998785 0.026310
vn -0.998398 0.053162 0.019369
vn -0.999144 0.039902 0.010893
vn 0.997562 0.068912 0.010971
vn 0.996454 0.081812 0.019629
vn 0.011056 -0.611270 0.791345
vn -0.011355 -0.610707 0.791776
vn -0.851301 0.066290 0.520474
vn -0.935206 0.163239 0.314234
vn -0.965971 0.250727 0.063529
vn -0.655886 -0.044045 0.753574
vn -0.996713 -0.079652 0.014809
vn -0.997976 -0.060608 0.019256
vn -0.041524 -0.006520 0.999116
vn 0.042758 -0.005468 0.999071
vn 0.999308 -0.031998 0.018965
vn 0.998547 -0.051735 0.015116
vn 0.655849 -0.038590 0.753905
vn 0.851510 0.067550 0.519969
vn 0.965971 0.250727 0.063529
vn 0.935183 0.163331 0.314253
vn 0.891669 0.344327 -0.293879
vn 0.208287 0.452814 -0.866935
vn -0.208285 0.452812 -0.866936
vn -0.891670 0.344323 -0.293880
s 1
g pCube1
usemtl initialShadingGroup
f 40/42/1 18/3/2 19/4/3 39/43/4
f 2/77/5 10/78/6 49/79/7 44/80/8
f 49/79/7 12/83/9 32/84/10 44/80/8
f 3/90/11 11/89/12 27/91/13 81/93/14
f 14/131/15 15/132/16 48/133/17 45/134/18
f 48/133/17 9/135/19 6/136/20 45/134/18
f 43/95/21 12/96/9 49/97/7 79/98/22
f 49/79/7 10/78/6 42/81/23 79/82/22
f 38/85/24 2/77/5 44/80/8 73/86/25
f 44/112/8 32/113/10 29/114/26 73/115/25
f 7/137/27 8/138/28 5/139/29 4/140/30
f 28/141/31 9/135/19 48/133/17 46/142/32
f 48/133/17 15/132/16 30/143/33 46/142/32
f 6/136/20 9/135/19 28/141/31 1/144/34
f 13/145/35 14/131/15 45/134/18 47/146/36
f 45/134/18 6/136/20 1/144/34 47/146/36
f 32/84/10 12/83/9 50/87/37 51/88/38
f 50/87/37 11/89/12 3/90/11 51/88/38
f 29/114/26 32/113/10 51/116/38 82/117/39
f 51/88/38 3/90/11 81/93/14 82/94/39
f 4/140/30 5/139/29 53/147/40 52/148/41
f 53/147/40 14/131/15 13/145/35 52/148/41
f 5/139/29 8/138/28 54/149/42 53/147/40
f 54/149/42 15/132/16 14/131/15 53/147/40
f 30/143/33 15/132/16 54/149/42 55/150/43
f 54/149/42 8/138/28 7/137/27 55/150/43
f 27/91/13 11/89/12 50/87/37 80/92/44
f 50/99/37 12/96/9 43/95/21 80/100/44
f 1/45/34 28/46/31 35/47/45 60/48/46
f 33/62/47 10/61/6 2/64/5 34/63/48
f 34/63/48 2/64/5 38/59/24 74/60/49
f 42/55/23 10/61/6 33/62/47 78/56/50
f 60/48/46 35/47/45 58/51/51 56/52/52
f 58/22/51 22/17/53 62/25/54 56/20/52
f 20/13/55 21/15/56 59/23/57 57/21/58
f 59/65/57 33/62/47 34/63/48 57/67/58
f 76/30/59 20/14/55 57/32/58 75/29/60
f 57/67/58 34/63/48 74/60/49 75/68/60
f 78/56/50 33/62/47 59/65/57 77/66/61
f 59/33/57 21/16/56 61/24/62 77/31/61
f 19/7/3 18/8/2 21/15/56 20/13/55
f 21/16/56 18/11/2 40/44/1 61/24/62
f 22/17/53 17/5/63 16/6/64 62/25/54
f 39/41/4 19/10/3 20/14/55 76/30/59
f 47/122/36 1/126/34 25/123/65 63/119/66
f 23/118/67 13/121/35 47/122/36 63/119/66
f 25/53/65 1/45/34 60/48/46 64/54/68
f 64/54/68 60/48/46 56/52/52 65/58/69
f 56/34/52 62/19/54 66/27/70 65/26/69
f 62/19/54 16/9/64 37/35/71 66/27/70
f 16/1/64 17/2/63 36/36/72 37/37/71
f 36/39/72 17/12/63 22/18/53 41/38/73
f 41/38/73 22/18/53 58/40/51 67/28/74
f 58/51/51 35/47/45 68/50/75 67/57/74
f 35/47/45 28/46/31 26/49/76 68/50/75
f 46/104/32 30/105/33 31/102/77 69/101/78
f 26/107/76 28/110/31 46/104/32 69/101/78
f 31/102/77 30/105/33 55/108/43 70/103/79
f 55/108/43 7/111/27 24/109/80 70/103/79
f 24/109/80 7/128/27 4/129/30 71/130/81
f 52/125/41 13/121/35 23/118/67 72/120/82
f 71/130/81 4/127/30 52/125/41 72/120/82
f 63/119/66 25/123/65 38/124/24 73/115/25
f 29/114/26 23/118/67 63/119/66 73/115/25
f 38/59/24 25/53/65 64/54/68 74/60/49
f 74/69/49 64/70/68 65/71/69 75/72/60
f 65/26/69 66/27/70 76/30/59 75/29/60
f 66/27/70 37/35/71 39/41/4 76/30/59
f 37/37/71 36/36/72 40/42/1 39/43/4
f 40/44/1 36/39/72 41/38/73 61/24/62
f 61/24/62 41/38/73 67/28/74 77/31/61
f 67/73/74 68/74/75 78/75/50 77/76/61
f 68/50/75 26/49/76 42/55/23 78/56/50
f 69/101/78 31/102/77 43/95/21 79/98/22
f 42/106/23 26/107/76 69/101/78 79/98/22
f 43/95/21 31/102/77 70/103/79 80/100/44
f 70/103/79 24/109/80 27/91/13 80/100/44
f 27/91/13 24/109/80 71/130/81 81/93/14
f 72/120/82 23/118/67 29/114/26 82/117/39
f 81/93/14 71/130/81 72/120/82 82/117/39
