# This file uses centimeters as units for non-parametric coordinates.

mtllib sd_prop_plank.mtl
g default
v -5.000000 -0.500000 12.500000
v 5.000000 -0.500000 12.500000
v -5.000000 0.500000 12.500000
v 5.000000 0.500000 12.500000
v -5.000000 0.500000 -12.500000
v 5.000000 0.500000 -12.500000
v -5.000000 -0.500000 -12.500000
v 5.000000 -0.500000 -12.500000
vt 0.878493 0.982282
vt 0.878493 0.015327
vt 0.975188 0.015327
vt 0.975188 0.982282
vt 0.381023 0.002184
vt 0.779429 0.002184
vt 0.779429 0.998200
vt 0.381023 0.998200
vt 0.878493 0.982992
vt 0.878493 0.016037
vt 0.975188 0.016037
vt 0.975188 0.982992
vt 0.379907 0.001992
vt 0.778313 0.001992
vt 0.778313 0.998008
vt 0.379907 0.998008
vt 0.340398 0.998008
vt 0.340398 0.001992
vt 0.380239 0.001992
vt 0.380239 0.998008
vt 0.778676 0.998008
vt 0.778676 0.001992
vt 0.818516 0.001992
vt 0.818516 0.998008
vn 0.000000 0.000000 1.000000
vn 0.000000 0.000000 1.000000
vn 0.000000 0.000000 1.000000
vn 0.000000 0.000000 1.000000
vn 0.000000 1.000000 0.000000
vn 0.000000 1.000000 0.000000
vn 0.000000 1.000000 0.000000
vn 0.000000 1.000000 0.000000
vn 0.000000 0.000000 -1.000000
vn 0.000000 0.000000 -1.000000
vn 0.000000 0.000000 -1.000000
vn 0.000000 0.000000 -1.000000
vn 0.000000 -1.000000 0.000000
vn 0.000000 -1.000000 0.000000
vn 0.000000 -1.000000 0.000000
vn 0.000000 -1.000000 0.000000
vn 1.000000 0.000000 0.000000
vn 1.000000 0.000000 0.000000
vn 1.000000 0.000000 0.000000
vn 1.000000 0.000000 0.000000
vn -1.000000 0.000000 0.000000
vn -1.000000 0.000000 0.000000
vn -1.000000 0.000000 0.000000
vn -1.000000 0.000000 0.000000
s off
g pCube1
usemtl initialShadingGroup
f 1/1/1 2/2/2 4/3/3 3/4/4
f 3/5/5 4/6/6 6/7/7 5/8/8
f 5/9/9 6/10/10 8/11/11 7/12/12
f 7/13/13 8/14/14 2/15/15 1/16/16
f 2/17/17 8/18/18 6/19/19 4/20/20
f 7/21/21 1/22/22 3/23/23 5/24/24
