# This file uses centimeters as units for non-parametric coordinates.

mtllib sd_prop_box.mtl
g default
v -3.000000 -3.000000 3.000000
v 3.000000 -3.000000 3.000000
v -3.000000 3.000000 3.000000
v 3.000000 3.000000 3.000000
v -3.000000 3.000000 -3.000000
v 3.000000 3.000000 -3.000000
v -3.000000 -3.000000 -3.000000
v 3.000000 -3.000000 -3.000000
vt 0.992683 0.004662
vt 0.992683 0.004662
vt 0.000477 0.004662
vt 0.000477 1.000000
vt 0.993100 0.999889
vt 0.993927 0.999687
vt 0.000477 0.004662
vt -0.006900 0.000203
vt 0.000477 1.000000
vt 0.992683 0.999687
vt 0.992683 0.004662
vt 0.993927 0.999687
vt 0.000477 0.004662
vt 0.000477 1.000000
vt 0.992683 0.004662
vt 0.993100 -0.000111
vt -0.006900 0.999889
vt 0.000477 1.000000
vt 0.992683 0.999687
vt 0.992683 0.004662
vt 0.000477 1.000000
vt 0.992683 0.999687
vt 0.000477 0.004662
vt 0.000477 0.004662
vn 0.000000 0.000000 1.000000
vn 0.000000 0.000000 1.000000
vn 0.000000 0.000000 1.000000
vn 0.000000 0.000000 1.000000
vn 0.000000 1.000000 0.000000
vn 0.000000 1.000000 0.000000
vn 0.000000 1.000000 0.000000
vn 0.000000 1.000000 0.000000
vn 0.000000 0.000000 -1.000000
vn 0.000000 0.000000 -1.000000
vn 0.000000 0.000000 -1.000000
vn 0.000000 0.000000 -1.000000
vn 0.000000 -1.000000 0.000000
vn 0.000000 -1.000000 0.000000
vn 0.000000 -1.000000 0.000000
vn 0.000000 -1.000000 0.000000
vn 1.000000 0.000000 0.000000
vn 1.000000 0.000000 0.000000
vn 1.000000 0.000000 0.000000
vn 1.000000 0.000000 0.000000
vn -1.000000 0.000000 0.000000
vn -1.000000 0.000000 0.000000
vn -1.000000 0.000000 0.000000
vn -1.000000 0.000000 0.000000
s off
g pCube1
usemtl initialShadingGroup
f 1/24/1 2/2/2 4/19/3 3/21/4
f 3/3/5 4/20/6 6/6/7 5/18/8
f 5/5/9 6/17/10 8/8/11 7/16/12
f 7/7/13 8/15/14 2/10/15 1/9/16
f 2/23/17 8/11/18 6/12/19 4/4/20
f 7/13/21 1/1/22 3/22/23 5/14/24
