# 3ds Max Wavefront OBJ Exporter v0.97b - (c)2007 guruware
# File Created: 07.05.2014 23:25:52

mtllib Trossbox.mtl

#
# object MetalRigg001
#

v  5.5168 1.8389 1.8389
v  5.5168 1.8389 -1.8389
v  5.5168 -1.8389 -1.8389
v  5.5168 -1.8389 1.8389
v  -5.5168 1.8389 1.8389
v  -5.5168 1.8389 -1.8389
v  -5.5168 -1.8389 1.8389
v  -5.5168 -1.8389 -1.8389
v  5.5380 1.8460 1.8460
v  5.5380 -1.8460 1.8460
v  5.5380 -1.8460 -1.8460
v  5.5380 1.8460 -1.8460
v  -5.5380 1.8460 1.8460
v  -5.5380 1.8460 -1.8460
v  -5.5380 -1.8460 1.8460
v  -5.5380 -1.8460 -1.8460
# 16 vertices

vn -1.0000 0.0000 -0.0000
vn 0.0000 -1.0000 -0.0000
vn 1.0000 0.0000 -0.0000
vn 0.0000 1.0000 -0.0000
vn 0.0000 0.0000 1.0000
vn 0.0000 0.0000 -1.0000
# 6 vertex normals

vt 0.6792 0.9586 0.0000
vt 0.9930 0.9586 0.0000
vt 0.9930 0.6213 0.0000
vt 0.6792 0.6213 0.0000
vt 0.9930 0.0131 0.0000
vt 0.6792 0.0131 0.0000
# 6 texture coords

g MetalRigg001
usemtl Material__25
s off
f 1/1/1 2/2/1 3/3/1 4/4/1 
f 5/1/2 6/2/2 2/5/2 1/6/2 
f 7/1/3 8/2/3 6/3/3 5/4/3 
f 4/1/4 3/2/4 8/5/4 7/6/4 
f 2/2/5 6/5/5 8/6/5 3/1/5 
f 5/2/6 1/5/6 4/6/6 7/1/6 
f 9/1/3 10/4/3 11/3/3 12/2/3 
f 13/1/4 9/6/4 12/5/4 14/2/4 
f 15/1/1 13/4/1 14/3/1 16/2/1 
f 10/1/2 15/6/2 16/5/2 11/2/2 
f 12/2/6 11/1/6 16/6/6 14/5/6 
f 13/2/5 15/1/5 10/6/5 9/5/5 
# 12 polygons

