# This file uses centimeters as units for non-parametric coordinates.

mtllib sd_prop_ramp_straight.mtl
g default
v -10.000000 -4.998588 8.000000
v 10.000000 -4.998588 8.000000
v -10.000000 0.022263 -10.000000
v 10.000000 0.022263 -10.000000
v -10.000000 -0.977737 -10.000000
v 10.000000 -0.977737 -10.000000
v -8.340490 -5.001412 8.000000
v 8.344843 -5.001412 8.000000
v 9.796574 0.019439 -10.000000
v -9.821052 0.019439 -10.000000
v 10.000000 -4.998588 10.000000
v 9.807887 -5.001412 10.000000
v -9.800915 -5.001412 10.000000
v -10.000000 -4.998588 10.000000
v 9.807936 -2.022263 -7.911276
v -9.807433 -2.022245 -7.911312
v 7.034753 -0.977737 -10.000000
v 6.899993 -2.022257 -7.911288
v 2.783064 -5.001412 8.000000
v 2.782891 -5.001412 10.000000
v 2.770762 0.019439 -10.000000
v -7.034754 -0.977737 -10.000000
v -6.898934 -2.022251 -7.911300
v -2.778713 -5.001412 8.000000
v -2.778922 -5.001412 10.000000
v -2.793554 0.019439 -10.000000
v -10.000000 -5.998656 -10.000000
v -7.034754 -5.998656 -10.000000
v -6.898934 -6.001345 -7.911300
v -9.807433 -6.001345 -7.911312
v 7.034753 -5.998656 -10.000000
v 10.000000 -5.998656 -10.000000
v 9.807936 -6.001345 -7.911276
v 6.899993 -6.001339 -7.911288
v 9.997814 1.307361 -9.677385
v 9.794005 1.304538 -9.677385
v 9.805318 -3.716314 10.322615
v 9.997814 -3.713490 10.322615
v -9.997801 -3.713489 10.322613
v -9.997801 1.307362 -9.677387
v -9.798330 -3.716313 10.322613
v -9.818467 1.304538 -9.677387
vt 0.375000 0.125000
vt 0.625000 0.125000
vt 0.375000 0.500000
vt 0.625000 0.500000
vt 0.375000 0.750000
vt 0.625000 0.750000
vt 0.375000 1.000000
vt 0.625000 1.000000
vt 0.875000 0.000000
vt 0.875000 0.250000
vt 0.125000 0.000000
vt 0.125000 0.250000
vt 0.375000 0.125000
vt 0.625000 0.125000
vt 0.625000 0.500000
vt 0.375000 0.500000
vt 0.604121 0.500000
vt 0.395309 0.500000
vt 0.604365 1.000000
vt 0.398658 1.000000
vt 0.625000 0.130297
vt 0.628531 0.126766
vt 0.625000 0.130297
vt 0.375000 0.130297
vt 0.371469 0.126766
vt 0.375000 0.130297
vt 0.622606 0.779010
vt 0.377745 0.779010
vt 0.541667 0.750000
vt 0.540985 0.779010
vt 0.541667 0.125000
vt 0.535796 1.000000
vt 0.541667 0.130297
vt 0.541667 0.500000
vt 0.534517 0.500000
vt 0.458333 0.750000
vt 0.459365 0.779010
vt 0.458333 0.125000
vt 0.467227 1.000000
vt 0.458333 0.130297
vt 0.458333 0.500000
vt 0.464913 0.500000
vt 0.375000 0.750000
vt 0.458333 0.750000
vt 0.459365 0.779010
vt 0.377745 0.779010
vt 0.541667 0.750000
vt 0.625000 0.750000
vt 0.622606 0.779010
vt 0.540985 0.779010
vt 0.625000 0.500000
vt 0.625000 0.500000
vt 0.625000 0.130297
vt 0.625000 0.130297
vt 0.375000 0.500000
vt 0.375000 0.130297
vt 0.375000 0.130297
vt 0.375000 0.500000
vn 0.000000 0.966574 0.256386
vn 0.000000 -1.000000 0.000000
vn 0.000000 -1.000000 -0.000000
vn 0.000000 0.963676 0.267075
vn 0.003057 -0.999995 -0.001118
vn 0.003057 -0.999995 -0.001118
vn 0.003057 -0.999995 -0.001118
vn 0.003057 -0.999995 -0.001118
vn 0.000000 0.000000 -1.000000
vn -0.002544 0.183492 -0.983018
vn -0.002477 0.178673 -0.983905
vn 0.000000 -0.999999 -0.001287
vn 0.000000 -0.999999 -0.001287
vn 0.000000 -0.999999 -0.001287
vn 0.000000 -0.999999 -0.001287
vn 1.000000 0.000000 0.000000
vn 1.000000 0.000000 0.000000
vn 0.999999 0.001117 0.000280
vn 0.999999 0.001481 0.000372
vn -1.000000 0.000000 0.000000
vn -1.000000 0.000000 0.000000
vn -0.999999 0.001490 0.000374
vn -0.999999 0.001123 0.000282
vn -0.003039 -0.999995 -0.001109
vn -0.003039 -0.999995 -0.001109
vn -0.003039 -0.999995 -0.001109
vn -0.003039 -0.999995 -0.001109
vn 0.000000 0.000000 -1.000000
vn 0.000000 0.000000 -1.000000
vn 0.000000 0.000000 -1.000000
vn 0.000000 0.000000 -1.000000
vn 0.002878 0.182606 -0.983182
vn 0.000000 0.000000 -1.000000
vn 0.002818 0.178792 -0.983883
vn 0.325665 -0.928647 -0.177642
vn 0.325665 -0.928648 -0.177642
vn 0.325665 -0.928647 -0.177642
vn 0.325665 -0.928647 -0.177642
vn -0.324895 -0.928907 -0.177692
vn -0.324895 -0.928907 -0.177692
vn -0.324895 -0.928907 -0.177692
vn -0.324895 -0.928907 -0.177692
vn -0.013821 0.969811 0.243467
vn -0.013821 0.969811 0.243467
vn -0.013821 0.969811 0.243467
vn -0.013821 0.969811 0.243467
vn 0.000000 0.969904 0.243487
vn 0.000000 0.969904 0.243487
vn 0.014459 0.969804 0.243455
vn 0.014459 0.969805 0.243455
vn 0.014459 0.969805 0.243455
vn 0.014459 0.969805 0.243455
vn -0.000000 -0.982919 -0.184038
vn -0.000000 -0.975204 -0.221306
vn -0.000000 -0.982919 -0.184037
vn -0.000000 -0.982919 -0.184037
vn -0.000001 -0.999999 -0.001286
vn -0.000001 -0.999999 -0.001286
vn -0.000001 -0.999999 -0.001286
vn -0.000001 -0.999999 -0.001286
vn -0.000000 -0.982919 -0.184037
vn -0.000000 -0.975207 -0.221296
vn -0.000000 -0.982919 -0.184037
vn -0.000000 -0.982919 -0.184037
vn 0.000000 0.963676 0.267074
vn 0.000000 -1.000000 -0.000000
vn 0.000000 -1.000000 0.000000
vn 0.000000 0.966574 0.256389
vn 0.000000 0.969904 0.243487
vn 0.000000 0.969904 0.243487
vn 0.000000 0.000000 -1.000000
vn 0.000000 0.000000 -1.000000
vn 0.000000 0.000000 -1.000000
vn 0.000000 0.000000 -1.000000
vn -0.000000 -0.894399 -0.447270
vn -0.000000 -0.894399 -0.447270
vn 0.000000 0.000000 -1.000000
vn 0.000000 0.000000 -1.000000
vn 0.000000 0.000000 -1.000000
vn 0.000000 0.000000 -1.000000
vn 0.997893 0.000000 -0.064889
vn 0.997892 0.000000 -0.064889
vn 0.997893 0.000000 -0.064889
vn 0.997893 0.000000 -0.064889
vn -0.000004 0.000000 1.000000
vn -0.000004 0.000000 1.000000
vn -0.000004 0.000000 1.000000
vn -0.000004 0.000000 1.000000
vn -0.995777 0.000000 0.091806
vn -0.995777 0.000000 0.091806
vn -0.995777 0.000000 0.091806
vn -0.995777 0.000000 0.091806
vn 0.000000 0.000000 -1.000000
vn 0.000000 0.000000 -1.000000
vn 0.000000 0.000000 -1.000000
vn 0.000000 0.000000 -1.000000
vn 0.995799 0.000000 0.091567
vn 0.995799 0.000000 0.091567
vn 0.995799 0.000000 0.091567
vn 0.995799 0.000000 0.091567
vn -0.000004 0.000000 1.000000
vn -0.000004 0.000000 1.000000
vn -0.000004 0.000000 1.000000
vn -0.000004 0.000000 1.000000
vn -0.997925 0.000000 -0.064384
vn -0.997925 0.000000 -0.064384
vn -0.997925 0.000000 -0.064384
vn -0.997925 0.000000 -0.064384
vn -0.003376 0.243479 -0.969900
vn -0.003376 0.243479 -0.969900
vn -0.999998 -0.002015 0.000060
vn -0.999998 -0.002015 0.000060
vn -0.999998 -0.002015 0.000060
vn -0.999998 -0.002015 0.000060
vn 0.003574 -0.243480 0.969899
vn 0.003574 -0.243480 0.969899
vn 0.003574 -0.243480 0.969899
vn 0.003574 -0.243480 0.969899
vn 0.999999 0.001600 0.000402
vn 0.999999 0.001600 0.000402
vn -0.999999 0.001609 0.000404
vn -0.999999 0.001609 0.000404
vn -0.003449 -0.243478 0.969900
vn -0.003449 -0.243478 0.969900
vn -0.003449 -0.243478 0.969900
vn -0.003449 -0.243478 0.969900
vn 0.999998 -0.001654 -0.001422
vn 0.999998 -0.001654 -0.001422
vn 0.999998 -0.001654 -0.001422
vn 0.999998 -0.001654 -0.001422
vn 0.003837 0.243477 -0.969899
vn 0.003837 0.243477 -0.969899
s 1
g Ramp
usemtl initialShadingGroup
f 13/24/1 7/13/2 24/38/3 25/40/4
s off
f 11/21/5 12/23/6 8/14/7 2/2/8
s 2
f 6/6/9 9/17/10 4/4/11
s off
f 27/43/12 28/44/13 29/45/14 30/46/15
s 3
f 2/2/16 6/9/17 4/10/18 11/22/19
s 4
f 5/11/20 1/1/21 14/25/22 3/12/23
s off
f 14/26/24 1/1/25 7/13/26 13/24/27
s 5
f 26/42/28 22/36/29 5/5/30 10/18/31
s 6
f 10/18/32 5/5/33 3/3/34
s off
f 8/19/35 15/27/36 6/6/37 2/8/38
f 5/5/39 16/28/40 7/20/41 1/7/42
f 35/51/43 36/52/44 37/53/45 38/54/46
s 1
f 10/16/47 13/24/1 25/40/4 26/41/48
s off
f 40/55/49 39/56/50 41/57/51 42/58/52
s 7
f 16/28/53 23/37/54 24/39/55 7/20/56
s off
f 31/47/57 32/48/58 33/49/59 34/50/60
s 7
f 19/32/61 18/30/62 15/27/63 8/19/64
s 1
f 20/33/65 19/31/66 8/14/67 12/23/68
f 21/34/69 20/33/65 12/23/68 9/15/70
s 5
f 9/17/71 6/6/72 17/29/73 21/35/74
s 7
f 22/36/75 17/29/76 18/30/62 23/37/54
f 24/39/55 23/37/54 18/30/62 19/32/61
s 1
f 25/40/4 24/38/3 19/31/66 20/33/65
f 26/41/48 25/40/4 20/33/65 21/34/69
s 5
f 21/35/74 17/29/73 22/36/29 26/42/28
s off
f 5/5/77 22/36/78 28/44/79 27/43/80
f 22/36/81 23/37/82 29/45/83 28/44/84
f 23/37/85 16/28/86 30/46/87 29/45/88
f 16/28/89 5/5/90 27/43/91 30/46/92
f 17/29/93 6/6/94 32/48/95 31/47/96
f 6/6/97 15/27/98 33/49/99 32/48/100
f 15/27/101 18/30/102 34/50/103 33/49/104
f 18/30/105 17/29/106 31/47/107 34/50/108
s 2
f 4/4/11 9/15/10 36/52/109 35/51/110
s off
f 9/15/111 12/23/112 37/53/113 36/52/114
f 12/23/115 11/21/116 38/54/117 37/53/118
s 3
f 11/21/19 4/4/18 35/51/119 38/54/120
s 4
f 3/3/23 14/26/22 39/56/121 40/55/122
s off
f 14/26/123 13/24/124 41/57/125 39/56/126
f 13/24/127 10/16/128 42/58/129 41/57/130
s 6
f 10/16/32 3/3/34 40/55/131 42/58/132
