# This file uses centimeters as units for non-parametric coordinates.

mtllib sd_prop_ramp_2.mtl
g default
v 14.886000 9.101800 22.098700
v 14.886000 9.101800 15.400400
v -14.886000 9.101800 15.400400
v -14.886000 9.101800 22.098700
v -14.886000 0.000000 22.098700
v 14.886000 0.000000 22.098700
v 14.886000 6.472700 13.608400
v -14.886000 6.472700 13.608400
v -14.886000 0.000000 15.400400
v -14.886000 0.000000 9.716100
v -14.886000 2.545900 9.716100
v -14.886000 1.873300 7.528300
v -14.886000 0.000000 7.528300
v 14.886000 1.319200 5.740200
v -14.886000 1.319200 5.740200
v 14.886000 1.873300 7.528300
v -14.886000 0.000000 3.686500
v -14.886000 1.149500 3.686500
v -14.886000 1.149500 -0.020400
v -14.886000 0.000000 -0.020400
v 14.886000 1.149500 -0.020400
v 14.886000 1.149500 3.686500
v -14.886000 0.000000 5.740200
v 14.886000 2.545900 9.716100
v -14.886000 4.071800 11.570400
v 14.886000 4.071800 11.570400
v -14.886000 0.000000 13.608400
v -14.886000 0.000000 11.570400
vt 0.988890 0.008219
vt 0.988890 0.244704
vt 0.814853 0.244704
vt 0.814853 0.008219
vt 0.768293 0.176394
vt 0.768293 0.008219
vt 0.715341 0.114013
vt 0.715341 0.008219
vt 0.667162 0.074367
vt 0.667162 0.008219
vt 0.610318 0.056891
vt 0.610318 0.008219
vt 0.563860 0.042494
vt 0.563860 0.008219
vt 0.510500 0.038085
vt 0.510500 0.008219
vt 0.414186 0.038085
vt 0.414186 0.008219
vt 0.002925 0.249330
vt 0.171395 0.249330
vt 0.171395 0.998129
vt 0.002925 0.998129
vt 0.216465 0.249330
vt 0.216465 0.998129
vt 0.267723 0.249330
vt 0.267723 0.998129
vt 0.314361 0.249330
vt 0.314361 0.998129
vt 0.369387 0.249330
vt 0.369387 0.998129
vt 0.414359 0.249330
vt 0.414359 0.998129
vt 0.466012 0.249330
vt 0.466012 0.998129
vt 0.559245 0.249330
vt 0.559245 0.998129
vt 0.709892 0.996795
vt 0.709892 0.251651
vt 0.998008 0.251651
vt 0.998008 0.996795
vn 0.000000 1.000000 0.000000
vn 0.000000 0.884099 -0.467299
vn 0.000000 0.884099 -0.467299
vn 0.000000 1.000000 0.000000
vn 0.000000 0.000000 1.000000
vn 0.000000 0.000000 1.000000
vn 0.000000 0.000000 1.000000
vn 0.000000 0.000000 1.000000
vn 0.000000 0.606031 -0.795441
vn -0.000000 0.606031 -0.795441
vn 0.000000 0.884099 -0.467299
vn 0.000000 0.884099 -0.467299
vn -1.000000 0.000000 -0.000000
vn -1.000000 0.000000 -0.000000
vn -1.000000 0.000000 0.000000
vn -1.000000 0.000000 0.000000
vn -1.000000 0.000000 0.000000
vn -1.000000 0.000000 0.000000
vn -1.000000 0.000000 0.000000
vn -1.000000 0.000000 0.000000
vn -0.000000 0.981725 -0.190305
vn -0.000000 0.981725 -0.190305
vn -0.000000 0.955526 -0.294908
vn -0.000000 0.955526 -0.294908
vn -1.000000 0.000000 -0.000000
vn -1.000000 0.000000 -0.000000
vn -1.000000 0.000000 -0.000000
vn -1.000000 0.000000 0.000000
vn -0.000000 1.000000 -0.000000
vn 0.000000 1.000000 0.000000
vn -0.000000 0.999151 -0.041198
vn -0.000000 0.999151 -0.041198
vn -1.000000 0.000000 -0.000000
vn -1.000000 0.000000 -0.000000
vn -1.000000 0.000000 -0.000000
vn -1.000000 0.000000 -0.000000
vn -0.000000 0.880731 -0.473617
vn -0.000000 0.880731 -0.473617
vn -0.000000 0.712486 -0.701686
vn -0.000000 0.712486 -0.701686
vn -1.000000 0.000000 0.000000
vn -1.000000 0.000000 0.000000
vn -1.000000 0.000000 -0.000000
vn -1.000000 0.000000 0.000000
vn -0.000000 0.712486 -0.701686
vn -0.000000 0.712486 -0.701686
vn -0.000000 0.606031 -0.795441
vn 0.000000 0.606031 -0.795441
vn -1.000000 0.000000 0.000000
vn -1.000000 0.000000 0.000000
vn -1.000000 0.000000 0.000000
vn -1.000000 0.000000 0.000000
vn -1.000000 0.000000 0.000000
vn -1.000000 0.000000 -0.000000
vn -1.000000 0.000000 0.000000
vn -1.000000 0.000000 0.000000
vn -0.000000 0.955526 -0.294908
vn -0.000000 0.955526 -0.294908
vn -0.000000 0.880731 -0.473617
vn -0.000000 0.880731 -0.473617
vn -0.000000 0.999151 -0.041198
vn -0.000000 0.999151 -0.041198
vn -0.000000 0.981725 -0.190305
vn -0.000000 0.981725 -0.190305
vn -1.000000 0.000000 0.000000
vn -1.000000 0.000000 0.000000
vn -1.000000 0.000000 -0.000000
vn -1.000000 0.000000 -0.000000
s off
g sd_prop_ramp_2:Box001
usemtl initialShadingGroup
f 1/19/1 2/20/2 3/21/3 4/22/4
f 5/37/5 6/38/6 1/39/7 4/40/8
f 7/23/9 8/24/10 3/21/11 2/20/12
f 5/1/13 4/2/14 3/3/15 9/4/16
f 10/10/17 11/9/18 12/11/19 13/12/20
f 14/31/21 15/32/22 12/30/23 16/29/24
f 17/16/25 18/15/26 19/17/27 20/18/28
f 21/35/29 19/36/30 18/34/31 22/33/32
f 23/14/33 15/13/34 18/15/35 17/16/36
f 24/27/37 11/28/38 25/26/39 26/25/40
f 27/6/41 8/5/42 25/7/43 28/8/44
f 26/25/45 25/26/46 8/24/47 7/23/48
f 9/4/49 3/3/50 8/5/51 27/6/52
f 28/8/53 25/7/54 11/9/55 10/10/56
f 16/29/57 12/30/58 11/28/59 24/27/60
f 22/33/61 18/34/62 15/32/63 14/31/64
f 13/12/65 12/11/66 15/13/67 23/14/68
